<?xml version="1.0" encoding="utf-8"?>
<!-- Generator: Adobe Illustrator 15.1.0, SVG Export Plug-In . SVG Version: 6.00 Build 0)  -->
<!DOCTYPE svg PUBLIC "-//W3C//DTD SVG 1.1//EN" "http://www.w3.org/Graphics/SVG/1.1/DTD/svg11.dtd">
<svg version="1.1" id="Layer_1" xmlns="http://www.w3.org/2000/svg" xmlns:xlink="http://www.w3.org/1999/xlink" x="0px" y="0px"
	 width="612px" height="792px" viewBox="0 0 612 792" enable-background="new 0 0 612 792" xml:space="preserve">
<title>HTML5 Logo</title>
<polygon fill="#FF0000" points="131.033,652.125 91.575,209.553 525.155,209.553 485.655,652.057 308.101,701.281 "/>
<polygon fill="#FC4444" points="306,664.375 449.474,624.599 483.229,246.459 306,246.459 "/>
<polygon fill="#EBEBEB" points="306,410.604 234.174,410.604 229.213,355.02 306,355.02 306,300.74 305.812,300.74 169.892,300.74 
	171.191,315.302 184.532,464.882 306,464.882 "/>
<polygon fill="#EBEBEB" points="306,551.573 305.762,551.637 245.311,535.313 241.446,492.023 212.071,492.023 186.958,492.023 
	194.562,577.25 305.75,608.116 306,608.047 "/>
<polygon fill="#FFFFFF" points="305.812,410.604 305.812,464.882 372.651,464.882 366.352,535.279 305.812,551.619 305.812,608.09 
	417.089,577.25 417.905,568.08 430.66,425.179 431.984,410.604 417.357,410.604 "/>
<polygon fill="#FFFFFF" points="305.812,300.74 305.812,334.452 305.812,354.887 305.812,355.02 436.749,355.02 436.749,355.02 
	436.924,355.02 438.013,342.819 440.485,315.302 441.784,300.74 "/>
<g>
	<path d="M118.426,111.976h22.352v23.594h20.441v-23.594h22.352v66.864h-22.352v-23.976h-20.441v23.976h-22.352V111.976z"/>
	<path d="M208.309,130.889h-19.677v-18.913h61.706v18.913H230.66v47.951h-22.352V130.889z"/>
	<path d="M251.578,111.976h23.402l9.457,32.095l10.794-32.286h19.294l10.794,32.286l9.457-32.095h23.021l-21.875,67.342h-19.485
		l-11.749-33.241l-11.749,33.241h-19.486L251.578,111.976z"/>
	<path d="M361.615,111.976h23.308l14.328,23.498l14.327-23.498h23.308v66.864h-22.257v-33.146l-15.378,23.785h-0.383l-15.378-23.785
		v33.146h-21.875V111.976z"/>
	<path d="M444.525,111.976h22.353v47.76h31.426v19.104h-53.778V111.976z"/>
</g>
</svg>
